<?xml version="1.0" encoding="UTF-8" standalone="no"?>
<!-- Created with Inkscape (http://www.inkscape.org/) -->

<svg
   width="140mm"
   height="35mm"
   viewBox="0 0 140 34.999999"
   version="1.1"
   id="svg1"
   inkscape:version="1.4 (e7c3feb100, 2024-10-09)"
   sodipodi:docname="bleh.svg"
   inkscape:export-filename="bleh.pdf"
   inkscape:export-xdpi="96"
   inkscape:export-ydpi="96"
   xmlns:inkscape="http://www.inkscape.org/namespaces/inkscape"
   xmlns:sodipodi="http://sodipodi.sourceforge.net/DTD/sodipodi-0.dtd"
   xmlns="http://www.w3.org/2000/svg"
   xmlns:svg="http://www.w3.org/2000/svg"
   xmlns:ns15="http://www.iki.fi/pav/software/textext/">
  <sodipodi:namedview
     id="namedview1"
     pagecolor="#ffffff"
     bordercolor="#666666"
     borderopacity="1.0"
     inkscape:showpageshadow="2"
     inkscape:pageopacity="0.0"
     inkscape:pagecheckerboard="0"
     inkscape:deskcolor="#d1d1d1"
     inkscape:document-units="mm"
     inkscape:zoom="1.6863847"
     inkscape:cx="169.89006"
     inkscape:cy="51.886145"
     inkscape:window-width="3840"
     inkscape:window-height="2086"
     inkscape:window-x="0"
     inkscape:window-y="0"
     inkscape:window-maximized="1"
     inkscape:current-layer="layer1"
     showgrid="false">
    <inkscape:grid
       id="grid69"
       units="mm"
       originx="-16.833017"
       originy="-124.83409"
       spacingx="0.26458333"
       spacingy="0.26458334"
       empcolor="#0099e5"
       empopacity="0.30196078"
       color="#0099e5"
       opacity="0.14901961"
       empspacing="5"
       enabled="true"
       visible="false" />
  </sodipodi:namedview>
  <defs
     id="defs1">
    <inkscape:path-effect
       effect="fillet_chamfer"
       id="path-effect106"
       is_visible="true"
       lpeversion="1"
       nodesatellites_param="F,0,0,1,0,0.50000001,0,1 @ F,0,0,1,0,0.50000001,0,1 @ F,0,0,1,0,0.50000001,0,1 @ F,0,0,1,0,0.50000001,0,1"
       radius="0.5"
       unit="mm"
       method="auto"
       mode="F"
       chamfer_steps="1"
       flexible="false"
       use_knot_distance="true"
       apply_no_radius="true"
       apply_with_radius="true"
       only_selected="false"
       hide_knots="false" />
    <inkscape:path-effect
       effect="fillet_chamfer"
       id="path-effect104"
       is_visible="true"
       lpeversion="1"
       nodesatellites_param="F,0,0,1,0,0.50000001,0,1 @ F,0,0,1,0,0.50000001,0,1 @ F,0,0,1,0,0.50000001,0,1 @ F,0,0,1,0,0.50000001,0,1"
       radius="0.5"
       unit="mm"
       method="auto"
       mode="F"
       chamfer_steps="1"
       flexible="false"
       use_knot_distance="true"
       apply_no_radius="true"
       apply_with_radius="true"
       only_selected="false"
       hide_knots="false" />
    <inkscape:path-effect
       effect="fillet_chamfer"
       id="path-effect103"
       is_visible="true"
       lpeversion="1"
       nodesatellites_param="F,0,0,1,0,0.50000001,0,1 @ F,0,0,1,0,0.50000001,0,1 @ F,0,0,1,0,0.50000001,0,1 @ F,0,0,1,0,0.50000001,0,1"
       radius="0.5"
       unit="mm"
       method="auto"
       mode="F"
       chamfer_steps="1"
       flexible="false"
       use_knot_distance="true"
       apply_no_radius="true"
       apply_with_radius="true"
       only_selected="false"
       hide_knots="false" />
    <marker
       markerWidth="0.52499998"
       markerHeight="0.99999994"
       refX="0"
       refY="0"
       orient="auto-start-reverse"
       id="CapTriangle"
       viewBox="0 0 0.525 1"
       inkscape:stockid="Triangle cap"
       style="overflow:visible"
       preserveAspectRatio="xMidYMid"
       inkscape:isstock="true"
       inkscape:collect="always">
      <path
         style="fill:context-stroke;stroke-linecap:butt"
         d="M 0,-1 1,0 0,1 -0.05,0 Z"
         sodipodi:nodetypes="sssssscsss"
         transform="scale(0.5)"
         id="path68" />
    </marker>
    <marker
       markerWidth="1.05"
       markerHeight="0.99999994"
       refX="0"
       refY="0"
       orient="auto-start-reverse"
       id="CapRibbon1"
       viewBox="0 0 1.05 1"
       inkscape:stockid="Ribbon cap"
       style="overflow:visible"
       preserveAspectRatio="xMidYMid"
       inkscape:isstock="true"
       inkscape:collect="always">
      <path
         style="fill:context-stroke;stroke-linecap:butt"
         d="M 0,-1 H 2 L 1,0 2,1 H 0 L -0.1,0 Z"
         sodipodi:nodetypes="sssssscsss"
         transform="scale(0.5)"
         id="path64" />
    </marker>
  </defs>
  <g
     inkscape:label="Layer 1"
     inkscape:groupmode="layer"
     id="layer1"
     transform="translate(-16.833, -124.834)">
    <path
       style="fill:#9141ac;stroke-width:1.086;stroke-linecap:square;stroke-miterlimit:24;stroke-dasharray:none;paint-order:markers stroke fill"
       id="path104"
       width="20.904783"
       height="12.218449"
       x="132.42853"
       y="128.36104"
       inkscape:path-effect="#path-effect106"
       sodipodi:type="rect"
       d="m 132.92853,128.36104 h 19.90478 a 0.50000001,0.50000001 45 0 1 0.5,0.5 v 11.21845 a 0.50000001,0.50000001 135 0 1 -0.5,0.5 h -19.90478 a 0.50000001,0.50000001 45 0 1 -0.5,-0.5 v -11.21845 a 0.50000001,0.50000001 135 0 1 0.5,-0.5 z"
       transform="translate(0,15.521131)" />
    <g
       id="g106"
       transform="translate(-2.6625606,0.6237396)"
       style="fill:#ffffff">
      <g
         transform="matrix(0.352778,0,0,0.352778,144.69453,150.11353)"
         ns15:version="1.10.2"
         ns15:texconverter="pdflatex"
         ns15:pdfconverter="inkscape"
         ns15:text="$$\\hat{\\varrho}$$"
         ns15:preamble="/home/n3e/textext.tex"
         ns15:scale="1.0"
         ns15:alignment="middle center"
         ns15:stroke-to-path="0"
         ns15:inkscapeversion="1.4"
         ns15:jacobian_sqrt="0.352778"
         id="g75"
         style="fill:#ffffff">
        <defs
           id="id-58f86e35-4249-4d04-ac7a-52d82509aa8c">
          <g
             id="id-143d1112-794b-46b2-b3ed-2c3515213fa0">
            <g
               id="id-a39de218-8a37-476c-9f6c-182a15c1d8aa">
              <path
                 d="M 2.5,-6.921875 1.15625,-5.5625 1.328125,-5.390625 2.5,-6.40625 3.640625,-5.390625 3.8125,-5.5625 Z m 0,0"
                 id="id-fb1555ae-5315-49f4-aed1-599ac1b9e1ce" />
            </g>
            <g
               id="id-2c5a2bd5-e14e-4a06-ae9a-bdbf7891f836">
              <path
                 d="m 4.71875,-2.859375 c 0,-0.921875 -0.609375,-1.53125 -1.515625,-1.53125 -2.578125,0 -3.296875,3.453125 -3.296875,5.234375 0,0.8125 0.5625,1.046875 1.640625,1.046875 0.40625,0 0.828125,-0.03125 1.078125,-0.03125 0.453125,0 0.46875,0.1875 0.46875,0.203125 H 3.25 c 0,-0.015625 0.046875,-0.171875 0.046875,-0.28125 0,-0.34375 -0.09375,-0.625 -1.328125,-0.625 -0.34375,0 -0.640625,0.015625 -0.890625,0.015625 -0.515625,0 -0.8125,-0.125 -0.8125,-0.546875 V 0.40625 c 0,-0.25 0.015625,-0.8125 0.15625,-1.484375 L 0.4375,-1.0625 c 0.140625,0.71875 0.65625,1.171875 1.484375,1.171875 1.65625,0 2.796875,-1.640625 2.796875,-2.96875 z M 3.953125,-2.875 c 0,1.296875 -0.703125,2.734375 -1.8125,2.734375 -0.609375,0 -0.890625,-0.59375 -0.890625,-1.328125 0,-1.125 0.546875,-2.671875 1.796875,-2.671875 0.71875,0 0.90625,0.640625 0.90625,1.265625 z m 0,0"
                 id="id-7a457a7a-d7ab-4530-9c21-1841c77fee98" />
            </g>
          </g>
        </defs>
        <g
           fill="#000000"
           fill-opacity="1"
           id="id-cafca2e7-16a8-4f44-9aec-28f935e0a58b"
           transform="translate(-303.303,-139.773)"
           style="fill:#ffffff">
          <g
             transform="translate(303.98,146.695)"
             id="g94"
             style="fill:#ffffff">
            <path
               d="M 2.5,-6.921875 1.15625,-5.5625 1.328125,-5.390625 2.5,-6.40625 3.640625,-5.390625 3.8125,-5.5625 Z m 0,0"
               id="id-bb9e2eeb-6322-4dfc-8a29-618ef66431b4"
               style="fill:#ffffff" />
          </g>
        </g>
        <g
           fill="#000000"
           fill-opacity="1"
           id="id-b61e72e9-2905-475f-91b3-ab091289f5e3"
           transform="translate(-303.303,-139.773)"
           style="fill:#ffffff">
          <g
             transform="translate(303.397,146.72)"
             id="g95"
             style="fill:#ffffff">
            <path
               d="m 4.71875,-2.859375 c 0,-0.921875 -0.609375,-1.53125 -1.515625,-1.53125 -2.578125,0 -3.296875,3.453125 -3.296875,5.234375 0,0.8125 0.5625,1.046875 1.640625,1.046875 0.40625,0 0.828125,-0.03125 1.078125,-0.03125 0.453125,0 0.46875,0.1875 0.46875,0.203125 H 3.25 c 0,-0.015625 0.046875,-0.171875 0.046875,-0.28125 0,-0.34375 -0.09375,-0.625 -1.328125,-0.625 -0.34375,0 -0.640625,0.015625 -0.890625,0.015625 -0.515625,0 -0.8125,-0.125 -0.8125,-0.546875 V 0.40625 c 0,-0.25 0.015625,-0.8125 0.15625,-1.484375 L 0.4375,-1.0625 c 0.140625,0.71875 0.65625,1.171875 1.484375,1.171875 1.65625,0 2.796875,-1.640625 2.796875,-2.96875 z M 3.953125,-2.875 c 0,1.296875 -0.703125,2.734375 -1.8125,2.734375 -0.609375,0 -0.890625,-0.59375 -0.890625,-1.328125 0,-1.125 0.546875,-2.671875 1.796875,-2.671875 0.71875,0 0.90625,0.640625 0.90625,1.265625 z m 0,0"
               id="id-d8181c50-792b-43f2-b202-e1172c97f438"
               style="fill:#ffffff" />
          </g>
        </g>
      </g>
      <text
         xml:space="preserve"
         style="font-size:3.52777px;line-height:1.25;font-family:Hack;-inkscape-font-specification:'Hack, Normal';text-align:end;letter-spacing:0.0079375px;text-anchor:end;stroke-width:0.264583;fill:#ffffff"
         x="151.87473"
         y="148.06169"
         id="text95"><tspan
           sodipodi:role="line"
           id="tspan95"
           style="stroke-width:0.264583;fill:#ffffff"
           x="151.88266"
           y="148.06169">OUTPUT</tspan></text>
    </g>
    <g
       id="g108">
      <path
         style="fill:#1c71d8;stroke-width:1.086;stroke-linecap:square;stroke-miterlimit:24;stroke-dasharray:none;paint-order:markers stroke fill"
         id="rect72"
         width="20.904783"
         height="12.218449"
         x="132.42853"
         y="128.36104"
         inkscape:path-effect="#path-effect103"
         sodipodi:type="rect"
         d="m 132.92853,128.36104 h 19.90478 a 0.50000001,0.50000001 45 0 1 0.5,0.5 v 11.21845 a 0.50000001,0.50000001 135 0 1 -0.5,0.5 h -19.90478 a 0.50000001,0.50000001 45 0 1 -0.5,-0.5 v -11.21845 a 0.50000001,0.50000001 135 0 1 0.5,-0.5 z" />
      <g
         id="g107">
        <g
           transform="matrix(0.352778,0,0,0.352778,140.67998,135.20278)"
           ns15:version="1.10.2"
           ns15:texconverter="pdflatex"
           ns15:pdfconverter="inkscape"
           ns15:text="$$\\ket{m}$$"
           ns15:preamble="/home/n3e/textext.tex"
           ns15:scale="1.0"
           ns15:alignment="middle center"
           ns15:stroke-to-path="0"
           ns15:inkscapeversion="1.4"
           ns15:jacobian_sqrt="0.352778"
           id="g72"
           style="fill:#ffffff">
          <defs
             id="id-aa58488f-8b57-4085-a2fe-ef28efe43cf4">
            <g
               id="id-343f0e10-719d-4b52-a2dd-56a56b4eb321">
              <g
                 id="id-c1d644a4-e683-4618-b595-db1bd4ada312">
                <path
                   d="m 1.28125,1.921875 v -8.96875 h -0.5625 v 8.96875 z m 0,0"
                   id="id-02fa3697-533e-4ecd-8958-57bad81aea1f" />
              </g>
              <g
                 id="id-01b30bf9-8134-4190-a94c-5466061fba87">
                <path
                   d="M 3.125,-2.5625 0.984375,-7.046875 H 0.5 L 2.4375,-2.5625 0.5,1.921875 h 0.484375 z m 0,0"
                   id="id-73a1a48d-0571-46c7-aa73-adbfa44dc526" />
              </g>
              <g
                 id="id-fe4ed384-021a-4e3b-9c3c-0405e8dc4942">
                <path
                   d="M 7.015625,-1.046875 6.875,-1.171875 6.65625,-0.90625 C 6.375,-0.53125 6.1875,-0.375 6.015625,-0.375 c -0.078125,0 -0.125,-0.046875 -0.125,-0.15625 0,-0.046875 0.046875,-0.21875 0.09375,-0.453125 l 0.6875,-2.5 c 0,-0.046875 0.03125,-0.21875 0.03125,-0.28125 0,-0.359375 -0.25,-0.625 -0.578125,-0.625 -0.203125,0 -0.390625,0.046875 -0.625,0.203125 -0.484375,0.3125 -0.90625,0.796875 -1.609375,1.90625 0.25,-0.765625 0.40625,-1.328125 0.40625,-1.515625 0,-0.359375 -0.234375,-0.59375 -0.5625,-0.59375 -0.609375,0 -1.3125,0.65625 -2.234375,2.09375 L 2.078125,-4.375 2.046875,-4.390625 0.453125,-4.09375 v 0.171875 h 0.25 c 0.28125,0 0.390625,0.0625 0.390625,0.21875 0,0.109375 -0.21875,1.015625 -0.578125,2.28125 L 0.125,0 h 0.75 c 0.46875,-1.578125 0.625,-1.953125 0.953125,-2.46875 0.5625,-0.84375 1.15625,-1.40625 1.5,-1.40625 0.125,0 0.203125,0.09375 0.203125,0.25 0,0.125 -0.265625,1.1875 -0.703125,2.703125 L 2.578125,0 h 0.75 c 0.390625,-1.53125 0.59375,-2.03125 1.078125,-2.71875 0.5,-0.703125 1,-1.15625 1.3125,-1.15625 0.109375,0 0.1875,0.09375 0.1875,0.203125 0,0.046875 -0.015625,0.15625 -0.0625,0.359375 l -0.578125,2.28125 c -0.109375,0.390625 -0.125,0.5625 -0.125,0.65625 0,0.3125 0.140625,0.46875 0.390625,0.46875 0.46875,0 0.90625,-0.328125 1.4375,-1.078125 z m 0,0"
                   id="id-66392967-66fd-41f2-b1d6-323a57c7d834" />
              </g>
            </g>
          </defs>
          <g
             fill="#000000"
             fill-opacity="1"
             id="id-70740ed5-113f-4fcb-baa8-291f7fadcb59"
             transform="translate(-299.499,-139.673)"
             style="fill:#ffffff">
            <g
               transform="translate(298.78,146.72)"
               id="g69"
               style="fill:#ffffff">
              <path
                 d="m 1.28125,1.921875 v -8.96875 h -0.5625 v 8.96875 z m 0,0"
                 id="id-525d52b6-372d-4163-8db9-ad52f7897828"
                 style="fill:#ffffff" />
            </g>
          </g>
          <g
             fill="#000000"
             fill-opacity="1"
             id="id-d2b3c049-0514-4098-8e59-75be1cd050e5"
             transform="translate(-299.499,-139.673)"
             style="fill:#ffffff">
            <g
               transform="translate(301.24,146.72)"
               id="g70"
               style="fill:#ffffff">
              <path
                 d="M 7.015625,-1.046875 6.875,-1.171875 6.65625,-0.90625 C 6.375,-0.53125 6.1875,-0.375 6.015625,-0.375 c -0.078125,0 -0.125,-0.046875 -0.125,-0.15625 0,-0.046875 0.046875,-0.21875 0.09375,-0.453125 l 0.6875,-2.5 c 0,-0.046875 0.03125,-0.21875 0.03125,-0.28125 0,-0.359375 -0.25,-0.625 -0.578125,-0.625 -0.203125,0 -0.390625,0.046875 -0.625,0.203125 -0.484375,0.3125 -0.90625,0.796875 -1.609375,1.90625 0.25,-0.765625 0.40625,-1.328125 0.40625,-1.515625 0,-0.359375 -0.234375,-0.59375 -0.5625,-0.59375 -0.609375,0 -1.3125,0.65625 -2.234375,2.09375 L 2.078125,-4.375 2.046875,-4.390625 0.453125,-4.09375 v 0.171875 h 0.25 c 0.28125,0 0.390625,0.0625 0.390625,0.21875 0,0.109375 -0.21875,1.015625 -0.578125,2.28125 L 0.125,0 h 0.75 c 0.46875,-1.578125 0.625,-1.953125 0.953125,-2.46875 0.5625,-0.84375 1.15625,-1.40625 1.5,-1.40625 0.125,0 0.203125,0.09375 0.203125,0.25 0,0.125 -0.265625,1.1875 -0.703125,2.703125 L 2.578125,0 h 0.75 c 0.390625,-1.53125 0.59375,-2.03125 1.078125,-2.71875 0.5,-0.703125 1,-1.15625 1.3125,-1.15625 0.109375,0 0.1875,0.09375 0.1875,0.203125 0,0.046875 -0.015625,0.15625 -0.0625,0.359375 l -0.578125,2.28125 c -0.109375,0.390625 -0.125,0.5625 -0.125,0.65625 0,0.3125 0.140625,0.46875 0.390625,0.46875 0.46875,0 0.90625,-0.328125 1.4375,-1.078125 z m 0,0"
                 id="id-10b4f964-470a-4f65-86ef-ea933734ba2c"
                 style="fill:#ffffff" />
            </g>
          </g>
          <g
             fill="#000000"
             fill-opacity="1"
             id="id-35889ea9-0577-413b-bfa5-249c5148445c"
             transform="translate(-299.499,-139.673)"
             style="fill:#ffffff">
            <g
               transform="translate(308.852,146.72)"
               id="g71"
               style="fill:#ffffff">
              <path
                 d="M 3.125,-2.5625 0.984375,-7.046875 H 0.5 L 2.4375,-2.5625 0.5,1.921875 h 0.484375 z m 0,0"
                 id="id-93e24bd8-b1c9-45b7-82bd-def0301e15f9"
                 style="fill:#ffffff" />
            </g>
          </g>
        </g>
        <text
           xml:space="preserve"
           style="font-size:3.52777px;line-height:1.25;font-family:Hack;-inkscape-font-specification:'Hack, Normal';text-align:end;letter-spacing:0.0079375px;text-anchor:end;fill:#ffffff;stroke-width:0.264583"
           x="147.10185"
           y="133.14549"
           id="text72"><tspan
             sodipodi:role="line"
             id="tspan72"
             style="fill:#ffffff;stroke-width:0.264583"
             x="147.10979"
             y="133.14549">PNRD</tspan></text>
      </g>
    </g>
    <path
       style="fill:#ffb900;fill-opacity:1;stroke-width:1.25714;stroke-linecap:square;stroke-miterlimit:24;paint-order:markers stroke fill"
       id="rect1"
       width="50.01878"
       height="31.347631"
       x="20.331406"
       y="126.66029"
       inkscape:path-effect="#path-effect104"
       sodipodi:type="rect"
       d="m 20.831406,126.66029 h 49.018779 a 0.50000001,0.50000001 45 0 1 0.5,0.5 l 0,30.34764 a 0.50000001,0.50000001 135 0 1 -0.5,0.5 H 20.831406 a 0.50000001,0.50000001 45 0 1 -0.5,-0.5 v -30.34764 a 0.50000001,0.50000001 135 0 1 0.5,-0.5 z" />
    <g
       id="g17"
       transform="translate(3.4997078,0.15025576)">
      <g
         transform="matrix(0.352778,0,0,0.352778,27.916011,144.75844)"
         ns15:version="1.10.2"
         ns15:texconverter="pdflatex"
         ns15:pdfconverter="inkscape"
         ns15:text="$$\\sqrt{1 - \\lambda^{2}} \\sum_{i} \\lambda^{i} \\ket{i}\\ket{i}$$"
         ns15:preamble="/home/n3e/textext.tex"
         ns15:scale="1.0"
         ns15:alignment="middle center"
         ns15:stroke-to-path="0"
         ns15:jacobian_sqrt="0.352778"
         id="g16">
        <defs
           id="id-6faea295-174b-43ad-bb31-0626c48c47f6">
          <g
             id="id-c6ccd64c-a246-443e-bf4a-ba1633a72e13">
            <g
               id="id-1ae2ad3b-3a02-48db-9a9a-624f72fb630b">
              <path
                 d="M 7.3125,-0.5625 H 6.734375 L 4.46875,7.25 2.515625,3.09375 0.59375,4.109375 0.71875,4.3125 1.78125,3.921875 4.40625,9.40625 Z m 0,0"
                 id="id-e5ef75b3-6ea8-4357-8f7b-3d683cd1dda6" />
            </g>
            <g
               id="id-b3f1a411-6985-4d3e-b657-a5ccb0fcd015">
              <path
                 d="m 5.71875,-2.28125 v -0.5625 H 0.625 v 0.5625 z m 0,0"
                 id="id-7ca7640a-9dd7-4d17-bbfa-a2772cefc086" />
            </g>
            <g
               id="id-c20af332-4c60-4fa0-8243-0424b3b0d67a">
              <path
                 d="m 1.28125,1.921875 v -8.96875 h -0.5625 v 8.96875 z m 0,0"
                 id="id-53f51930-1128-4c31-97f1-9926131599a6" />
            </g>
            <g
               id="id-b2ed1fcd-c6ca-4587-9ac7-ed5f1e618e32">
              <path
                 d="M 3.125,-2.5625 0.984375,-7.046875 H 0.5 L 2.4375,-2.5625 0.5,1.921875 h 0.484375 z m 0,0"
                 id="id-d944a4ff-15ce-4ba5-beb2-648a27a62081" />
            </g>
            <g
               id="id-033d4c0d-a84e-4c83-bd02-e6a601cb87ad">
              <path
                 d="m 2.9375,-6.375 c 0,-0.25 0,-0.265625 -0.234375,-0.265625 C 2.078125,-6 1.203125,-6 0.890625,-6 v 0.3125 c 0.203125,0 0.78125,0 1.296875,-0.265625 v 5.171875 c 0,0.359375 -0.03125,0.46875 -0.921875,0.46875 h -0.3125 V 0 c 0.34375,-0.03125 1.203125,-0.03125 1.609375,-0.03125 0.390625,0 1.265625,0 1.609375,0.03125 v -0.3125 h -0.3125 c -0.90625,0 -0.921875,-0.109375 -0.921875,-0.46875 z m 0,0"
                 id="id-9be7cb8f-234a-41a7-9b12-f53ceab6fe34" />
            </g>
            <g
               id="id-8c6d3bce-f17d-4903-a5bd-daebfaec255b">
              <path
                 d="M 5.25,-0.734375 V -0.75 c -0.140625,0 -0.3125,0.34375 -0.734375,0.34375 -1.890625,0 1.546875,-6.125 -1.390625,-6.125 H 3.015625 c -0.171875,0 -0.59375,0.15625 -0.71875,0.265625 C 2.28125,-6.25 2.359375,-6.15625 2.375,-6.15625 c 0.046875,-0.046875 0.265625,-0.140625 0.46875,-0.140625 0.96875,0 0.703125,1.609375 0.703125,1.859375 0.015625,0.03125 0,0.046875 -0.015625,0.09375 C 3.34375,-3.421875 0.40625,-0.8125 0.15625,0 h 1 c 0,-0.09375 0.015625,-0.203125 0.03125,-0.3125 0.28125,-1.265625 2.234375,-3.203125 2.234375,-3.21875 H 3.4375 c -0.0625,0.515625 -0.953125,3.640625 0.671875,3.640625 0.4375,0 1.125,-0.71875 1.140625,-0.84375 z m 0,0"
                 id="id-da46ea72-8aa3-46da-823d-e35cc8145fed" />
            </g>
            <g
               id="id-b6c52b50-4c22-4915-9ebd-adc6d9480cc6">
              <path
                 d="m 2.34375,-1.03125 -0.125,-0.109375 c -0.4375,0.578125 -0.65625,0.78125 -0.828125,0.78125 -0.078125,0 -0.15625,-0.0625 -0.15625,-0.15625 0,-0.15625 0.09375,-0.453125 0.15625,-0.65625 L 2.265625,-4.375 2.25,-4.390625 c -1.015625,0.1875 -1.21875,0.21875 -1.609375,0.25 v 0.15625 c 0.546875,0 0.640625,0.03125 0.640625,0.234375 0,0.078125 -0.03125,0.25 -0.09375,0.4375 l -0.484375,1.765625 c -0.15625,0.59375 -0.21875,0.890625 -0.21875,1.09375 0,0.359375 0.15625,0.5625 0.46875,0.5625 0.46875,0 0.828125,-0.296875 1.390625,-1.140625 z M 2.75,-5.859375 c 0,-0.296875 -0.234375,-0.546875 -0.5,-0.546875 -0.265625,0 -0.46875,0.21875 -0.46875,0.53125 0,0.3125 0.1875,0.515625 0.484375,0.515625 0.25,0 0.484375,-0.21875 0.484375,-0.5 z m 0,0"
                 id="id-05883561-5db7-4a45-9224-959b39235cc9" />
            </g>
            <g
               id="id-65c7b06b-91c2-47e7-9018-c7894374af20">
              <path
                 d="M 3.515625,-1.265625 H 3.28125 c -0.015625,0.15625 -0.09375,0.5625 -0.1875,0.625 C 3.046875,-0.59375 2.515625,-0.59375 2.40625,-0.59375 H 1.125 c 0.734375,-0.640625 0.984375,-0.84375 1.390625,-1.171875 0.515625,-0.40625 1,-0.84375 1,-1.5 0,-0.84375 -0.734375,-1.359375 -1.625,-1.359375 -0.859375,0 -1.453125,0.609375 -1.453125,1.25 0,0.34375 0.296875,0.390625 0.375,0.390625 0.15625,0 0.359375,-0.125 0.359375,-0.375 0,-0.125 -0.046875,-0.375 -0.40625,-0.375 C 0.984375,-4.21875 1.453125,-4.375 1.78125,-4.375 c 0.703125,0 1.0625,0.546875 1.0625,1.109375 0,0.609375 -0.4375,1.078125 -0.65625,1.328125 L 0.515625,-0.265625 C 0.4375,-0.203125 0.4375,-0.1875 0.4375,0 h 2.875 z m 0,0"
                 id="id-04ac2821-3741-47f5-a439-aa7c3685e636" />
            </g>
            <g
               id="id-2b71e771-fc29-4a7e-8cc5-81ab18d78198">
              <path
                 d="m 12.375,10.984375 h -0.25 c -0.359375,2.1875 -1.171875,3.34375 -2.390625,3.34375 h -7.625 L 7.5625,7.359375 2.90625,0.515625 H 9.1875 c 1.28125,0 1.96875,0.734375 2.34375,2.9375 H 11.75 L 11.640625,0 H 1.171875 L 6.5,7.65625 0.421875,15.359375 h 11.75 z m 0,0"
                 id="id-6b083397-c067-4865-bc88-573ea3f3e07d" />
            </g>
            <g
               id="id-a2f123b5-c0ee-4f03-aba6-e14bdb2a27c7">
              <path
                 d="M 1.9375,-0.75 1.828125,-0.828125 c -0.34375,0.40625 -0.515625,0.5625 -0.65625,0.5625 -0.078125,0 -0.140625,-0.046875 -0.140625,-0.109375 0,-0.109375 0.078125,-0.328125 0.109375,-0.46875 L 1.734375,-3.1875 1.78125,-3.203125 C 0.921875,-3.0625 0.75,-3.046875 0.421875,-3.015625 v 0.109375 c 0.4375,0 0.515625,0.03125 0.515625,0.171875 0,0.0625 -0.015625,0.1875 -0.0625,0.328125 L 0.546875,-1.125 c -0.109375,0.4375 -0.15625,0.640625 -0.15625,0.796875 0.015625,0.265625 0.15625,0.40625 0.40625,0.40625 0.390625,0 0.6875,-0.21875 1.140625,-0.828125 z m 0.21875,-3.53125 c 0,-0.203125 -0.1875,-0.390625 -0.421875,-0.390625 -0.21875,0 -0.390625,0.15625 -0.390625,0.390625 0.015625,0.234375 0.1875,0.375 0.421875,0.375 0.21875,0 0.40625,-0.171875 0.390625,-0.375 z m 0,0"
                 id="id-0256744d-dad6-417f-ba79-aa360ae0ba03" />
            </g>
          </g>
        </defs>
        <g
           fill="#000000"
           fill-opacity="1"
           id="id-8fc0717e-96ee-4331-b31c-b0d9aca85e11"
           transform="translate(-265.999,-136.526)">
          <g
             transform="translate(265.405,137.552)"
             id="g1">
            <path
               d="M 7.3125,-0.5625 H 6.734375 L 4.46875,7.25 2.515625,3.09375 0.59375,4.109375 0.71875,4.3125 1.78125,3.921875 4.40625,9.40625 Z m 0,0"
               id="id-2e7b3577-4203-42c2-93df-878cdb7d11c7" />
          </g>
        </g>
        <path
           fill="none"
           stroke-width="0.553"
           stroke-linecap="butt"
           stroke-linejoin="miter"
           stroke="#000000"
           stroke-opacity="1"
           stroke-miterlimit="10"
           d="M 6.4114075,0.75134277 H 32.009064"
           id="id-cc5a71ca-6a2c-43ce-aa3a-25b00ae0eb7b" />
        <g
           fill="#000000"
           fill-opacity="1"
           id="id-a83e39a9-e975-450d-b12e-df2d3da7c336"
           transform="translate(-265.999,-136.526)">
          <g
             transform="translate(272.409,146.72)"
             id="g2">
            <path
               d="m 2.9375,-6.375 c 0,-0.25 0,-0.265625 -0.234375,-0.265625 C 2.078125,-6 1.203125,-6 0.890625,-6 v 0.3125 c 0.203125,0 0.78125,0 1.296875,-0.265625 v 5.171875 c 0,0.359375 -0.03125,0.46875 -0.921875,0.46875 h -0.3125 V 0 c 0.34375,-0.03125 1.203125,-0.03125 1.609375,-0.03125 0.390625,0 1.265625,0 1.609375,0.03125 v -0.3125 h -0.3125 c -0.90625,0 -0.921875,-0.109375 -0.921875,-0.46875 z m 0,0"
               id="id-e6a5fdf0-28a0-4d42-889d-3abcb85f3217" />
          </g>
        </g>
        <g
           fill="#000000"
           fill-opacity="1"
           id="id-d5f19bb8-415f-4b7c-a375-5decca2c7d9d"
           transform="translate(-265.999,-136.526)">
          <g
             transform="translate(279.604,146.72)"
             id="g3">
            <path
               d="m 5.71875,-2.28125 v -0.5625 H 0.625 v 0.5625 z m 0,0"
               id="id-84f3ce26-2fff-4e30-a3be-a7e2ffe6fe5c" />
          </g>
        </g>
        <g
           fill="#000000"
           fill-opacity="1"
           id="id-a118de93-bf03-4ee6-973e-fbf9b40e1982"
           transform="translate(-265.999,-136.526)">
          <g
             transform="translate(288.025,146.72)"
             id="g4">
            <path
               d="M 5.25,-0.734375 V -0.75 c -0.140625,0 -0.3125,0.34375 -0.734375,0.34375 -1.890625,0 1.546875,-6.125 -1.390625,-6.125 H 3.015625 c -0.171875,0 -0.59375,0.15625 -0.71875,0.265625 C 2.28125,-6.25 2.359375,-6.15625 2.375,-6.15625 c 0.046875,-0.046875 0.265625,-0.140625 0.46875,-0.140625 0.96875,0 0.703125,1.609375 0.703125,1.859375 0.015625,0.03125 0,0.046875 -0.015625,0.09375 C 3.34375,-3.421875 0.40625,-0.8125 0.15625,0 h 1 c 0,-0.09375 0.015625,-0.203125 0.03125,-0.3125 0.28125,-1.265625 2.234375,-3.203125 2.234375,-3.21875 H 3.4375 c -0.0625,0.515625 -0.953125,3.640625 0.671875,3.640625 0.4375,0 1.125,-0.71875 1.140625,-0.84375 z m 0,0"
               id="id-3ace4c75-7bc3-4b29-8a57-6167a5ede371" />
          </g>
        </g>
        <g
           fill="#000000"
           fill-opacity="1"
           id="id-6f9f7084-bf1d-4e6f-a3ad-f16f68f02ddc"
           transform="translate(-265.999,-136.526)">
          <g
             transform="translate(293.539,143.841)"
             id="g5">
            <path
               d="M 3.515625,-1.265625 H 3.28125 c -0.015625,0.15625 -0.09375,0.5625 -0.1875,0.625 C 3.046875,-0.59375 2.515625,-0.59375 2.40625,-0.59375 H 1.125 c 0.734375,-0.640625 0.984375,-0.84375 1.390625,-1.171875 0.515625,-0.40625 1,-0.84375 1,-1.5 0,-0.84375 -0.734375,-1.359375 -1.625,-1.359375 -0.859375,0 -1.453125,0.609375 -1.453125,1.25 0,0.34375 0.296875,0.390625 0.375,0.390625 0.15625,0 0.359375,-0.125 0.359375,-0.375 0,-0.125 -0.046875,-0.375 -0.40625,-0.375 C 0.984375,-4.21875 1.453125,-4.375 1.78125,-4.375 c 0.703125,0 1.0625,0.546875 1.0625,1.109375 0,0.609375 -0.4375,1.078125 -0.65625,1.328125 L 0.515625,-0.265625 C 0.4375,-0.203125 0.4375,-0.1875 0.4375,0 h 2.875 z m 0,0"
               id="id-0bfdbdec-4f49-4304-a2f6-177ef4136612" />
          </g>
        </g>
        <g
           fill="#000000"
           fill-opacity="1"
           id="id-d6105cb0-31f3-4d00-ac65-7ceb0642171b"
           transform="translate(-265.999,-136.526)">
          <g
             transform="translate(299.669,136.526)"
             id="g6">
            <path
               d="m 12.375,10.984375 h -0.25 c -0.359375,2.1875 -1.171875,3.34375 -2.390625,3.34375 h -7.625 L 7.5625,7.359375 2.90625,0.515625 H 9.1875 c 1.28125,0 1.96875,0.734375 2.34375,2.9375 H 11.75 L 11.640625,0 H 1.171875 L 6.5,7.65625 0.421875,15.359375 h 11.75 z m 0,0"
               id="id-756431ca-7d1d-4ac1-a6a2-a9d75a76a797" />
          </g>
        </g>
        <g
           fill="#000000"
           fill-opacity="1"
           id="id-9d34b019-57ae-4bed-80d4-98496c562792"
           transform="translate(-265.999,-136.526)">
          <g
             transform="translate(304.948,158.064)"
             id="g7">
            <path
               d="M 1.9375,-0.75 1.828125,-0.828125 c -0.34375,0.40625 -0.515625,0.5625 -0.65625,0.5625 -0.078125,0 -0.140625,-0.046875 -0.140625,-0.109375 0,-0.109375 0.078125,-0.328125 0.109375,-0.46875 L 1.734375,-3.1875 1.78125,-3.203125 C 0.921875,-3.0625 0.75,-3.046875 0.421875,-3.015625 v 0.109375 c 0.4375,0 0.515625,0.03125 0.515625,0.171875 0,0.0625 -0.015625,0.1875 -0.0625,0.328125 L 0.546875,-1.125 c -0.109375,0.4375 -0.15625,0.640625 -0.15625,0.796875 0.015625,0.265625 0.15625,0.40625 0.40625,0.40625 0.390625,0 0.6875,-0.21875 1.140625,-0.828125 z m 0.21875,-3.53125 c 0,-0.203125 -0.1875,-0.390625 -0.421875,-0.390625 -0.21875,0 -0.390625,0.15625 -0.390625,0.390625 0.015625,0.234375 0.1875,0.375 0.421875,0.375 0.21875,0 0.40625,-0.171875 0.390625,-0.375 z m 0,0"
               id="id-fd50ae3e-96c6-4c92-a67a-2b4c18512d92" />
          </g>
        </g>
        <g
           fill="#000000"
           fill-opacity="1"
           id="id-b57d25f1-f0ca-4002-aeef-e755dfaed3f5"
           transform="translate(-265.999,-136.526)">
          <g
             transform="translate(314.38,146.72)"
             id="g8">
            <path
               d="M 5.25,-0.734375 V -0.75 c -0.140625,0 -0.3125,0.34375 -0.734375,0.34375 -1.890625,0 1.546875,-6.125 -1.390625,-6.125 H 3.015625 c -0.171875,0 -0.59375,0.15625 -0.71875,0.265625 C 2.28125,-6.25 2.359375,-6.15625 2.375,-6.15625 c 0.046875,-0.046875 0.265625,-0.140625 0.46875,-0.140625 0.96875,0 0.703125,1.609375 0.703125,1.859375 0.015625,0.03125 0,0.046875 -0.015625,0.09375 C 3.34375,-3.421875 0.40625,-0.8125 0.15625,0 h 1 c 0,-0.09375 0.015625,-0.203125 0.03125,-0.3125 0.28125,-1.265625 2.234375,-3.203125 2.234375,-3.21875 H 3.4375 c -0.0625,0.515625 -0.953125,3.640625 0.671875,3.640625 0.4375,0 1.125,-0.71875 1.140625,-0.84375 z m 0,0"
               id="id-5cdad540-25df-4776-a40b-363d5a6f5f3d" />
          </g>
        </g>
        <g
           fill="#000000"
           fill-opacity="1"
           id="id-f2ee3883-1171-462a-b359-8ba53eefc5ee"
           transform="translate(-265.999,-136.526)">
          <g
             transform="translate(319.895,142.605)"
             id="g9">
            <path
               d="M 1.9375,-0.75 1.828125,-0.828125 c -0.34375,0.40625 -0.515625,0.5625 -0.65625,0.5625 -0.078125,0 -0.140625,-0.046875 -0.140625,-0.109375 0,-0.109375 0.078125,-0.328125 0.109375,-0.46875 L 1.734375,-3.1875 1.78125,-3.203125 C 0.921875,-3.0625 0.75,-3.046875 0.421875,-3.015625 v 0.109375 c 0.4375,0 0.515625,0.03125 0.515625,0.171875 0,0.0625 -0.015625,0.1875 -0.0625,0.328125 L 0.546875,-1.125 c -0.109375,0.4375 -0.15625,0.640625 -0.15625,0.796875 0.015625,0.265625 0.15625,0.40625 0.40625,0.40625 0.390625,0 0.6875,-0.21875 1.140625,-0.828125 z m 0.21875,-3.53125 c 0,-0.203125 -0.1875,-0.390625 -0.421875,-0.390625 -0.21875,0 -0.390625,0.15625 -0.390625,0.390625 0.015625,0.234375 0.1875,0.375 0.421875,0.375 0.21875,0 0.40625,-0.171875 0.390625,-0.375 z m 0,0"
               id="id-1d76e8f2-bdbb-4f93-a46a-70445dbbb40c" />
          </g>
        </g>
        <g
           fill="#000000"
           fill-opacity="1"
           id="id-7db383ba-945c-4b0b-bdb8-4fc6a610ecd6"
           transform="translate(-265.999,-136.526)">
          <g
             transform="translate(325.074,146.72)"
             id="g10">
            <path
               d="m 1.28125,1.921875 v -8.96875 h -0.5625 v 8.96875 z m 0,0"
               id="id-5d71edb9-600f-4270-b8f6-33a36b351e44" />
          </g>
        </g>
        <g
           fill="#000000"
           fill-opacity="1"
           id="id-7856dd13-9164-471a-b5fd-c67481d158da"
           transform="translate(-265.999,-136.526)">
          <g
             transform="translate(327.265,146.72)"
             id="g11">
            <path
               d="m 2.34375,-1.03125 -0.125,-0.109375 c -0.4375,0.578125 -0.65625,0.78125 -0.828125,0.78125 -0.078125,0 -0.15625,-0.0625 -0.15625,-0.15625 0,-0.15625 0.09375,-0.453125 0.15625,-0.65625 L 2.265625,-4.375 2.25,-4.390625 c -1.015625,0.1875 -1.21875,0.21875 -1.609375,0.25 v 0.15625 c 0.546875,0 0.640625,0.03125 0.640625,0.234375 0,0.078125 -0.03125,0.25 -0.09375,0.4375 l -0.484375,1.765625 c -0.15625,0.59375 -0.21875,0.890625 -0.21875,1.09375 0,0.359375 0.15625,0.5625 0.46875,0.5625 0.46875,0 0.828125,-0.296875 1.390625,-1.140625 z M 2.75,-5.859375 c 0,-0.296875 -0.234375,-0.546875 -0.5,-0.546875 -0.265625,0 -0.46875,0.21875 -0.46875,0.53125 0,0.3125 0.1875,0.515625 0.484375,0.515625 0.25,0 0.484375,-0.21875 0.484375,-0.5 z m 0,0"
               id="id-712f6979-a889-4150-9fc9-08145c804c0b" />
          </g>
        </g>
        <g
           fill="#000000"
           fill-opacity="1"
           id="id-46a23265-00ca-48b2-ae15-276f9b5a5a66"
           transform="translate(-265.999,-136.526)">
          <g
             transform="translate(330.414,146.72)"
             id="g12">
            <path
               d="M 3.125,-2.5625 0.984375,-7.046875 H 0.5 L 2.4375,-2.5625 0.5,1.921875 h 0.484375 z m 0,0"
               id="id-1d4f663d-c7b1-4199-8255-bd6ab4fd1de1" />
          </g>
        </g>
        <g
           fill="#000000"
           fill-opacity="1"
           id="id-aa93f333-3b74-4765-a027-c8aae3e5509c"
           transform="translate(-265.999,-136.526)">
          <g
             transform="translate(336.491,146.72)"
             id="g13">
            <path
               d="m 1.28125,1.921875 v -8.96875 h -0.5625 v 8.96875 z m 0,0"
               id="id-3fedd0bd-ee43-4ded-b35b-a23baeb08727" />
          </g>
        </g>
        <g
           fill="#000000"
           fill-opacity="1"
           id="id-17da6cbf-6496-48dc-952c-c7f9a2dcb54e"
           transform="translate(-265.999,-136.526)">
          <g
             transform="translate(338.679,146.72)"
             id="g14">
            <path
               d="m 2.34375,-1.03125 -0.125,-0.109375 c -0.4375,0.578125 -0.65625,0.78125 -0.828125,0.78125 -0.078125,0 -0.15625,-0.0625 -0.15625,-0.15625 0,-0.15625 0.09375,-0.453125 0.15625,-0.65625 L 2.265625,-4.375 2.25,-4.390625 c -1.015625,0.1875 -1.21875,0.21875 -1.609375,0.25 v 0.15625 c 0.546875,0 0.640625,0.03125 0.640625,0.234375 0,0.078125 -0.03125,0.25 -0.09375,0.4375 l -0.484375,1.765625 c -0.15625,0.59375 -0.21875,0.890625 -0.21875,1.09375 0,0.359375 0.15625,0.5625 0.46875,0.5625 0.46875,0 0.828125,-0.296875 1.390625,-1.140625 z M 2.75,-5.859375 c 0,-0.296875 -0.234375,-0.546875 -0.5,-0.546875 -0.265625,0 -0.46875,0.21875 -0.46875,0.53125 0,0.3125 0.1875,0.515625 0.484375,0.515625 0.25,0 0.484375,-0.21875 0.484375,-0.5 z m 0,0"
               id="id-1b9daeea-d599-4e47-aaa5-cacb8c10ef59" />
          </g>
        </g>
        <g
           fill="#000000"
           fill-opacity="1"
           id="id-5d971621-b12b-4ee3-be2b-6eec9d16b3be"
           transform="translate(-265.999,-136.526)">
          <g
             transform="translate(341.827,146.72)"
             id="g15">
            <path
               d="M 3.125,-2.5625 0.984375,-7.046875 H 0.5 L 2.4375,-2.5625 0.5,1.921875 h 0.484375 z m 0,0"
               id="id-14023241-7c44-43ac-b88f-dfe370d31792" />
          </g>
        </g>
      </g>
      <text
         xml:space="preserve"
         style="font-size:3.52777px;line-height:1.25;font-family:Hack;-inkscape-font-specification:'Hack, Normal';text-align:center;letter-spacing:0.0079375px;text-anchor:middle;stroke-width:0.264583"
         x="42.867844"
         y="134.60182"
         id="text16"><tspan
           sodipodi:role="line"
           id="tspan16"
           style="text-align:center;text-anchor:middle;stroke-width:0.264583"
           x="42.867844"
           y="134.60182">TWO MODE SQUEEZED </tspan><tspan
           sodipodi:role="line"
           style="text-align:center;text-anchor:middle;stroke-width:0.264583"
           x="42.871811"
           y="139.01154"
           id="tspan17">VACUUM STATE</tspan></text>
    </g>
    <path
       style="display:none;fill:none;stroke:#000000;stroke-width:0.264583px;stroke-linecap:butt;stroke-linejoin:miter;stroke-opacity:1"
       d="m 66.851799,124.8341 v 7.83691 7.83691 7.8369 7.83691"
       id="path61"
       sodipodi:nodetypes="ccccc" />
    <path
       style="fill:none;stroke:#000000;stroke-width:1;stroke-linecap:butt;stroke-linejoin:miter;stroke-dasharray:none;stroke-opacity:1;marker-end:url(#CapTriangle)"
       d="m 70.351507,134.4972 21.361746,-0.0565"
       id="path62"
       sodipodi:nodetypes="cc" />
    <path
       style="fill:none;stroke:#000000;stroke-width:1;stroke-linecap:butt;stroke-linejoin:miter;stroke-dasharray:none;stroke-opacity:1;marker-end:url(#CapTriangle)"
       d="m 70.351507,150.17101 21.361746,-0.0565"
       id="path65"
       sodipodi:nodetypes="cc" />
    <path
       style="fill:none;stroke:#000000;stroke-width:1;stroke-linecap:butt;stroke-linejoin:miter;stroke-dasharray:none;stroke-opacity:1;marker-start:url(#CapRibbon1);marker-end:url(#CapTriangle)"
       d="m 111.06545,134.4972 21.36175,-0.0565"
       id="path66"
       sodipodi:nodetypes="cc" />
    <path
       style="fill:none;stroke:#000000;stroke-width:1;stroke-linecap:butt;stroke-linejoin:miter;stroke-dasharray:none;stroke-opacity:1;marker-start:url(#CapRibbon1);marker-end:url(#CapTriangle)"
       d="m 111.06545,150.17101 21.36175,-0.0565"
       id="path67"
       sodipodi:nodetypes="cc" />
    <g
       transform="matrix(0.352778,0,0,0.352778,94.455608,132.27519)"
       ns15:version="1.10.2"
       ns15:texconverter="pdflatex"
       ns15:pdfconverter="inkscape"
       ns15:text="$$\\left\\{ \\hat{M}_{k} (\\zeta_{1}) \\right\\}$$"
       ns15:preamble="/home/n3e/textext.tex"
       ns15:scale="1.0"
       ns15:alignment="middle center"
       ns15:stroke-to-path="0"
       ns15:inkscapeversion="1.4"
       ns15:jacobian_sqrt="0.352778"
       id="g26">
      <defs
         id="id-daae3718-c530-4798-96d4-62182c8a34f0">
        <g
           id="id-bf7fa4ae-2206-4d17-bc45-02cf9c367cd4">
          <g
             id="id-ef8a0427-64f0-44f8-8b50-7ff373a8cdb6">
            <path
               d="M 1.8125,3.921875 C 1.8125,4.578125 1.671875,4.9375 0.65625,5.3125 0.609375,5.328125 0.578125,5.359375 0.578125,5.421875 c 0,0.078125 0.015625,0.09375 0.09375,0.125 1.34375,0.5 1.140625,1 1.140625,1.515625 v 2.96875 c 0.015625,0.25 0.15625,0.59375 0.59375,0.875 0.5,0.3125 1.109375,0.5 1.1875,0.5 0.109375,0 0.140625,-0.04687 0.140625,-0.125 0,-0.07813 -0.03125,-0.09375 -0.171875,-0.140625 C 3.265625,11.046875 2.765625,10.75 2.609375,10.1875 2.578125,10.078125 2.578125,10.0625 2.578125,9.703125 V 7.03125 C 2.578125,6.546875 2.734375,5.828125 1.375,5.4375 2.71875,5.0625 2.578125,4.328125 2.578125,3.8125 V 1.125 c 0,-0.5 0.03125,-1.0625 1.078125,-1.46875 0.078125,-0.03125 0.078125,-0.078125 0.078125,-0.09375 0,-0.078125 -0.03125,-0.125 -0.140625,-0.125 -0.0625,0 -1.265625,0.296875 -1.625,0.90625 C 1.8125,0.625 1.8125,0.71875 1.8125,1.109375 Z m 0,0"
               id="id-ac877d9f-b717-4382-ac43-b9f441456d25" />
          </g>
          <g
             id="id-1d75e2cd-518e-4445-b0ab-12c500d4b6d9">
            <path
               d="m 2.5,3.921875 v -2.8125 C 2.5,0.71875 2.5,0.625 2.328125,0.34375 1.984375,-0.265625 0.78125,-0.5625 0.703125,-0.5625 c -0.09375,0 -0.125,0.046875 -0.125,0.125 0,0.015625 0,0.0625 0.0625,0.09375 1.0625,0.40625 1.09375,0.96875 1.09375,1.46875 v 2.6875 c 0,0.515625 -0.15625,1.25 1.203125,1.625 -1.375,0.390625 -1.203125,1.109375 -1.203125,1.59375 v 2.671875 c 0,0.359375 0,0.375 -0.03125,0.484375 C 1.546875,10.75 1.03125,11.046875 0.75,11.140625 c -0.15625,0.04687 -0.171875,0.0625 -0.171875,0.140625 0,0.07813 0.03125,0.125 0.125,0.125 0.09375,0 0.703125,-0.1875 1.1875,-0.5 0.4375,-0.28125 0.59375,-0.625 0.609375,-0.875 V 7.0625 C 2.5,6.546875 2.296875,6.046875 3.625,5.546875 3.703125,5.515625 3.734375,5.5 3.734375,5.421875 3.734375,5.359375 3.703125,5.328125 3.65625,5.3125 2.640625,4.9375 2.5,4.578125 2.5,3.921875 Z m 0,0"
               id="id-357d852b-f36c-45fd-9115-375265f6194b" />
          </g>
          <g
             id="id-934041b1-51d2-40b4-b154-135ac7ea29aa">
            <path
               d="M 2.5,-6.921875 1.15625,-5.5625 1.328125,-5.390625 2.5,-6.40625 3.640625,-5.390625 3.8125,-5.5625 Z m 0,0"
               id="id-ce854202-babc-4fe5-a99e-3b9838317668" />
          </g>
          <g
             id="id-2ac451da-4808-444c-9d5c-e26c183974c0">
            <path
               d="M 7.3125,0 V -0.15625 C 6.640625,-0.21875 6.546875,-0.265625 6.546875,-0.59375 6.546875,-0.75 6.5625,-0.875 6.65625,-1.203125 l 1.234375,-4.40625 c 0.171875,-0.59375 0.21875,-0.65625 0.8125,-0.734375 V -6.515625 H 7.03125 L 3.6875,-1.59375 3.140625,-6.515625 h -1.8125 v 0.171875 c 0.5,0.03125 0.75,0.140625 0.75,0.359375 0,0.078125 -0.046875,0.234375 -0.109375,0.40625 l -0.078125,0.296875 -0.03125,0.125 -1.0625,3.703125 c -0.3125,1.03125 -0.453125,1.234375 -0.96875,1.296875 V 0 h 1.96875 V -0.15625 C 1.28125,-0.203125 1.09375,-0.3125 1.09375,-0.59375 1.09375,-0.703125 1.125,-0.953125 1.171875,-1.125 L 2.359375,-5.4375 2.953125,0 H 3.125 l 3.765625,-5.59375 -1.28125,4.6875 C 5.4375,-0.375 5.25,-0.234375 4.59375,-0.15625 V 0 Z m 0,0"
               id="id-fcd3a1dd-2c7f-4611-9d9a-4eb91f3efc36" />
          </g>
          <g
             id="id-bfdd08a3-0f8e-483d-be67-7e5af685a317">
            <path
               d="m 4.8125,-5.9375 c 0,-0.1875 -0.0625,-0.28125 -0.25,-0.28125 -0.890625,0 -1.140625,0.96875 -1.765625,0.96875 -0.34375,0 -0.390625,-0.265625 -0.390625,-0.390625 0,-0.4375 0.46875,-0.6875 0.671875,-0.78125 V -6.4375 h -0.25 C 2.8125,-6.4375 2,-6.09375 2,-5.515625 c 0,0.46875 0.5,0.53125 0.734375,0.53125 C 2.828125,-4.984375 2.859375,-5 2.875,-5 c 0,0.015625 -2.703125,2.921875 -2.703125,4.375 0,0.6875 0.65625,0.828125 1.296875,0.828125 1.09375,0 1.515625,0.078125 1.515625,0.53125 0,0.3125 -0.375,1.0625 -1.265625,1.0625 -0.359375,0 -0.40625,-0.328125 -0.40625,-0.4375 C 1.203125,1.390625 0.84375,1.53125 0.84375,1.796875 0.84375,1.90625 1.015625,2.0625 1.328125,2.0625 2.15625,2.0625 3.375,1.609375 3.375,0.375 c 0,-0.421875 -0.28125,-0.859375 -1.25,-0.859375 -0.921875,0 -0.953125,-0.46875 -0.953125,-0.640625 v -0.015625 c 0,-0.90625 1,-2.421875 1.671875,-3.390625 0.4375,-0.625 0.578125,-0.484375 1.046875,-0.625 C 4.40625,-5.328125 4.8125,-5.75 4.8125,-5.9375 Z m 0,0"
               id="id-168a067e-85a7-4d6d-9549-cbd99bab0c24" />
          </g>
          <g
             id="id-7f4142d4-e8a3-4f54-8338-0fe349e3f610">
            <path
               d="M 3.484375,-0.71875 3.34375,-0.796875 C 3.328125,-0.71875 3.265625,-0.65625 3.234375,-0.609375 3.09375,-0.375 3,-0.296875 2.875,-0.296875 c -0.171875,0 -0.34375,-0.234375 -0.703125,-0.9375 L 1.859375,-1.875 C 3.03125,-2.828125 3.28125,-2.96875 3.65625,-3 V -3.109375 H 2.203125 L 2.21875,-3 h 0.140625 c 0.21875,0 0.296875,0.0625 0.3125,0.140625 0,0.140625 -0.390625,0.390625 -1.140625,0.984375 L 1.171875,-1.609375 2.0625,-4.921875 1.96875,-4.96875 C 1.484375,-4.875 1.1875,-4.8125 0.703125,-4.765625 V -4.65625 H 0.84375 c 0.296875,0 0.421875,0.0625 0.453125,0.1875 -0.015625,0.125 -0.0625,0.3125 -0.171875,0.65625 L 1.0625,-3.578125 1.046875,-3.515625 0.109375,0 H 0.75 L 1.09375,-1.3125 1.4375,-1.546875 c 0.140625,0.328125 0.359375,0.78125 0.53125,1.03125 0.265625,0.453125 0.40625,0.59375 0.640625,0.59375 0.3125,0 0.53125,-0.1875 0.875,-0.796875 z m 0,0"
               id="id-f2b5f04f-683c-422a-9e67-521056e57c77" />
          </g>
          <g
             id="id-fcaad6b1-729d-4018-9c40-4fdcf7922fe3">
            <path
               d="M 2.9375,-7.140625 C 1.5,-6.203125 0.484375,-4.59375 0.484375,-2.5625 c 0,1.859375 1.046875,3.734375 2.421875,4.578125 l 0.125,-0.15625 C 1.71875,0.8125 1.328125,-0.390625 1.328125,-2.59375 1.328125,-4.8125 1.75,-5.953125 3.03125,-6.984375 Z m 0,0"
               id="id-c6754b6b-06a8-4040-a0ea-877183a7062b" />
          </g>
          <g
             id="id-4cd3eceb-2e5b-4a49-86eb-178fc41f1d7c">
            <path
               d="m 0.375,-7.140625 -0.078125,0.15625 c 1.28125,1.03125 1.6875,2.171875 1.6875,4.390625 0,2.203125 -0.375,3.40625 -1.6875,4.453125 l 0.109375,0.15625 c 1.375,-0.84375 2.4375,-2.71875 2.4375,-4.578125 0,-2.03125 -1.015625,-3.640625 -2.46875,-4.578125 z m 0,0"
               id="id-84bab9b8-4baf-49fa-8b5c-7d7f242ed278" />
          </g>
          <g
             id="id-62f85171-6b80-4bc3-bd9d-f4c7b5760be6">
            <path
               d="m 2.328125,-4.4375 c 0,-0.1875 0,-0.1875 -0.203125,-0.1875 -0.453125,0.4375 -1.078125,0.4375 -1.359375,0.4375 v 0.25 c 0.15625,0 0.625,0 1,-0.1875 v 3.546875 c 0,0.234375 0,0.328125 -0.6875,0.328125 H 0.8125 V 0 c 0.125,0 0.984375,-0.03125 1.234375,-0.03125 0.21875,0 1.09375,0.03125 1.25,0.03125 V -0.25 H 3.03125 c -0.703125,0 -0.703125,-0.09375 -0.703125,-0.328125 z m 0,0"
               id="id-4b453f62-9430-44ea-9660-9da24a844d41" />
          </g>
        </g>
      </defs>
      <g
         fill="#000000"
         fill-opacity="1"
         id="id-6ede9990-8793-46c8-b09c-c2eb5a61a245"
         transform="translate(-286.328,-137.577)">
        <g
           transform="translate(285.75,138.6)"
           id="g76">
          <path
             d="M 1.8125,3.921875 C 1.8125,4.578125 1.671875,4.9375 0.65625,5.3125 0.609375,5.328125 0.578125,5.359375 0.578125,5.421875 c 0,0.078125 0.015625,0.09375 0.09375,0.125 1.34375,0.5 1.140625,1 1.140625,1.515625 v 2.96875 c 0.015625,0.25 0.15625,0.59375 0.59375,0.875 0.5,0.3125 1.109375,0.5 1.1875,0.5 0.109375,0 0.140625,-0.04687 0.140625,-0.125 0,-0.07813 -0.03125,-0.09375 -0.171875,-0.140625 C 3.265625,11.046875 2.765625,10.75 2.609375,10.1875 2.578125,10.078125 2.578125,10.0625 2.578125,9.703125 V 7.03125 C 2.578125,6.546875 2.734375,5.828125 1.375,5.4375 2.71875,5.0625 2.578125,4.328125 2.578125,3.8125 V 1.125 c 0,-0.5 0.03125,-1.0625 1.078125,-1.46875 0.078125,-0.03125 0.078125,-0.078125 0.078125,-0.09375 0,-0.078125 -0.03125,-0.125 -0.140625,-0.125 -0.0625,0 -1.265625,0.296875 -1.625,0.90625 C 1.8125,0.625 1.8125,0.71875 1.8125,1.109375 Z m 0,0"
             id="id-dc4619c5-9738-453a-ac75-7dd466702701" />
        </g>
      </g>
      <g
         fill="#000000"
         fill-opacity="1"
         id="id-e998abb8-e97f-4087-b1a5-1ca90c92d76c"
         transform="translate(-286.328,-137.577)">
        <g
           transform="translate(293.556,144.499)"
           id="g77">
          <path
             d="M 2.5,-6.921875 1.15625,-5.5625 1.328125,-5.390625 2.5,-6.40625 3.640625,-5.390625 3.8125,-5.5625 Z m 0,0"
             id="id-9a969cfa-8671-4896-9023-fe47b0c4bdf3" />
        </g>
      </g>
      <g
         fill="#000000"
         fill-opacity="1"
         id="id-b277780d-5b3c-415a-be12-e149074f7de4"
         transform="translate(-286.328,-137.577)">
        <g
           transform="translate(290.752,146.72)"
           id="g78">
          <path
             d="M 7.3125,0 V -0.15625 C 6.640625,-0.21875 6.546875,-0.265625 6.546875,-0.59375 6.546875,-0.75 6.5625,-0.875 6.65625,-1.203125 l 1.234375,-4.40625 c 0.171875,-0.59375 0.21875,-0.65625 0.8125,-0.734375 V -6.515625 H 7.03125 L 3.6875,-1.59375 3.140625,-6.515625 h -1.8125 v 0.171875 c 0.5,0.03125 0.75,0.140625 0.75,0.359375 0,0.078125 -0.046875,0.234375 -0.109375,0.40625 l -0.078125,0.296875 -0.03125,0.125 -1.0625,3.703125 c -0.3125,1.03125 -0.453125,1.234375 -0.96875,1.296875 V 0 h 1.96875 V -0.15625 C 1.28125,-0.203125 1.09375,-0.3125 1.09375,-0.59375 1.09375,-0.703125 1.125,-0.953125 1.171875,-1.125 L 2.359375,-5.4375 2.953125,0 H 3.125 l 3.765625,-5.59375 -1.28125,4.6875 C 5.4375,-0.375 5.25,-0.234375 4.59375,-0.15625 V 0 Z m 0,0"
             id="id-225ef114-7d8a-4410-9aeb-fbfe5f4dc746" />
        </g>
      </g>
      <g
         fill="#000000"
         fill-opacity="1"
         id="id-0a3d1be8-a19d-4f84-9a07-b912f24c0524"
         transform="translate(-286.328,-137.577)">
        <g
           transform="translate(299.328,148.214)"
           id="g79">
          <path
             d="M 3.484375,-0.71875 3.34375,-0.796875 C 3.328125,-0.71875 3.265625,-0.65625 3.234375,-0.609375 3.09375,-0.375 3,-0.296875 2.875,-0.296875 c -0.171875,0 -0.34375,-0.234375 -0.703125,-0.9375 L 1.859375,-1.875 C 3.03125,-2.828125 3.28125,-2.96875 3.65625,-3 V -3.109375 H 2.203125 L 2.21875,-3 h 0.140625 c 0.21875,0 0.296875,0.0625 0.3125,0.140625 0,0.140625 -0.390625,0.390625 -1.140625,0.984375 L 1.171875,-1.609375 2.0625,-4.921875 1.96875,-4.96875 C 1.484375,-4.875 1.1875,-4.8125 0.703125,-4.765625 V -4.65625 H 0.84375 c 0.296875,0 0.421875,0.0625 0.453125,0.1875 -0.015625,0.125 -0.0625,0.3125 -0.171875,0.65625 L 1.0625,-3.578125 1.046875,-3.515625 0.109375,0 H 0.75 L 1.09375,-1.3125 1.4375,-1.546875 c 0.140625,0.328125 0.359375,0.78125 0.53125,1.03125 0.265625,0.453125 0.40625,0.59375 0.640625,0.59375 0.3125,0 0.53125,-0.1875 0.875,-0.796875 z m 0,0"
             id="id-ce1b083c-840c-4bed-8a64-d680cb3d3401" />
        </g>
      </g>
      <g
         fill="#000000"
         fill-opacity="1"
         id="id-e6f3bd8a-b248-4532-91e5-fc60074e324a"
         transform="translate(-286.328,-137.577)">
        <g
           transform="translate(304.321,146.72)"
           id="g80">
          <path
             d="M 2.9375,-7.140625 C 1.5,-6.203125 0.484375,-4.59375 0.484375,-2.5625 c 0,1.859375 1.046875,3.734375 2.421875,4.578125 l 0.125,-0.15625 C 1.71875,0.8125 1.328125,-0.390625 1.328125,-2.59375 1.328125,-4.8125 1.75,-5.953125 3.03125,-6.984375 Z m 0,0"
             id="id-2512f451-d09b-41e9-be9d-905adc995756" />
        </g>
      </g>
      <g
         fill="#000000"
         fill-opacity="1"
         id="id-463c90e5-8c05-4861-a750-38a1f37caeb0"
         transform="translate(-286.328,-137.577)">
        <g
           transform="translate(308.316,146.72)"
           id="g81">
          <path
             d="m 4.8125,-5.9375 c 0,-0.1875 -0.0625,-0.28125 -0.25,-0.28125 -0.890625,0 -1.140625,0.96875 -1.765625,0.96875 -0.34375,0 -0.390625,-0.265625 -0.390625,-0.390625 0,-0.4375 0.46875,-0.6875 0.671875,-0.78125 V -6.4375 h -0.25 C 2.8125,-6.4375 2,-6.09375 2,-5.515625 c 0,0.46875 0.5,0.53125 0.734375,0.53125 C 2.828125,-4.984375 2.859375,-5 2.875,-5 c 0,0.015625 -2.703125,2.921875 -2.703125,4.375 0,0.6875 0.65625,0.828125 1.296875,0.828125 1.09375,0 1.515625,0.078125 1.515625,0.53125 0,0.3125 -0.375,1.0625 -1.265625,1.0625 -0.359375,0 -0.40625,-0.328125 -0.40625,-0.4375 C 1.203125,1.390625 0.84375,1.53125 0.84375,1.796875 0.84375,1.90625 1.015625,2.0625 1.328125,2.0625 2.15625,2.0625 3.375,1.609375 3.375,0.375 c 0,-0.421875 -0.28125,-0.859375 -1.25,-0.859375 -0.921875,0 -0.953125,-0.46875 -0.953125,-0.640625 v -0.015625 c 0,-0.90625 1,-2.421875 1.671875,-3.390625 0.4375,-0.625 0.578125,-0.484375 1.046875,-0.625 C 4.40625,-5.328125 4.8125,-5.75 4.8125,-5.9375 Z m 0,0"
             id="id-3addcba2-1dec-484e-acca-2576c17ad038" />
        </g>
      </g>
      <g
         fill="#000000"
         fill-opacity="1"
         id="id-30f83374-263b-4f2f-a048-57536dce195f"
         transform="translate(-286.328,-137.577)">
        <g
           transform="translate(312.709,148.214)"
           id="g82">
          <path
             d="m 2.328125,-4.4375 c 0,-0.1875 0,-0.1875 -0.203125,-0.1875 -0.453125,0.4375 -1.078125,0.4375 -1.359375,0.4375 v 0.25 c 0.15625,0 0.625,0 1,-0.1875 v 3.546875 c 0,0.234375 0,0.328125 -0.6875,0.328125 H 0.8125 V 0 c 0.125,0 0.984375,-0.03125 1.234375,-0.03125 0.21875,0 1.09375,0.03125 1.25,0.03125 V -0.25 H 3.03125 c -0.703125,0 -0.703125,-0.09375 -0.703125,-0.328125 z m 0,0"
             id="id-bdc71b6e-3425-457b-b5e6-1332252fc81c" />
        </g>
      </g>
      <g
         fill="#000000"
         fill-opacity="1"
         id="id-2b82bf4c-f80a-4bad-b498-c53376fb3885"
         transform="translate(-286.328,-137.577)">
        <g
           transform="translate(317.179,146.72)"
           id="g83">
          <path
             d="m 0.375,-7.140625 -0.078125,0.15625 c 1.28125,1.03125 1.6875,2.171875 1.6875,4.390625 0,2.203125 -0.375,3.40625 -1.6875,4.453125 l 0.109375,0.15625 c 1.375,-0.84375 2.4375,-2.71875 2.4375,-4.578125 0,-2.03125 -1.015625,-3.640625 -2.46875,-4.578125 z m 0,0"
             id="id-38584965-9338-48fe-b58a-64df214bb552" />
        </g>
      </g>
      <g
         fill="#000000"
         fill-opacity="1"
         id="id-3e2da05b-5679-4891-8731-1b6d9ad47ef8"
         transform="translate(-286.328,-137.577)">
        <g
           transform="translate(321.193,138.6)"
           id="g84">
          <path
             d="m 2.5,3.921875 v -2.8125 C 2.5,0.71875 2.5,0.625 2.328125,0.34375 1.984375,-0.265625 0.78125,-0.5625 0.703125,-0.5625 c -0.09375,0 -0.125,0.046875 -0.125,0.125 0,0.015625 0,0.0625 0.0625,0.09375 1.0625,0.40625 1.09375,0.96875 1.09375,1.46875 v 2.6875 c 0,0.515625 -0.15625,1.25 1.203125,1.625 -1.375,0.390625 -1.203125,1.109375 -1.203125,1.59375 v 2.671875 c 0,0.359375 0,0.375 -0.03125,0.484375 C 1.546875,10.75 1.03125,11.046875 0.75,11.140625 c -0.15625,0.04687 -0.171875,0.0625 -0.171875,0.140625 0,0.07813 0.03125,0.125 0.125,0.125 0.09375,0 0.703125,-0.1875 1.1875,-0.5 0.4375,-0.28125 0.59375,-0.625 0.609375,-0.875 V 7.0625 C 2.5,6.546875 2.296875,6.046875 3.625,5.546875 3.703125,5.515625 3.734375,5.5 3.734375,5.421875 3.734375,5.359375 3.703125,5.328125 3.65625,5.3125 2.640625,4.9375 2.5,4.578125 2.5,3.921875 Z m 0,0"
             id="id-cd4e1e01-1ef9-47bb-b877-879c37252a3d" />
        </g>
      </g>
    </g>
    <g
       transform="matrix(0.352778,0,0,0.352778,94.455608,147.94919)"
       ns15:version="1.10.2"
       ns15:texconverter="pdflatex"
       ns15:pdfconverter="inkscape"
       ns15:text="$$\\left\\{ \\hat{M}_{k} (\\zeta_{2}) \\right\\}$$"
       ns15:preamble="/home/n3e/textext.tex"
       ns15:scale="1.0"
       ns15:alignment="middle center"
       ns15:stroke-to-path="0"
       ns15:inkscapeversion="1.4"
       ns15:jacobian_sqrt="0.352778"
       id="g60">
      <defs
         id="id-a9d0a666-f3e0-4413-8981-367580290c57">
        <g
           id="id-db8e9b97-1a1e-4461-be07-78926ade25eb">
          <g
             id="id-e9fd5dc7-c76a-4890-9558-024adaf6690c">
            <path
               d="M 1.8125,3.921875 C 1.8125,4.578125 1.671875,4.9375 0.65625,5.3125 0.609375,5.328125 0.578125,5.359375 0.578125,5.421875 c 0,0.078125 0.015625,0.09375 0.09375,0.125 1.34375,0.5 1.140625,1 1.140625,1.515625 v 2.96875 c 0.015625,0.25 0.15625,0.59375 0.59375,0.875 0.5,0.3125 1.109375,0.5 1.1875,0.5 0.109375,0 0.140625,-0.04687 0.140625,-0.125 0,-0.07813 -0.03125,-0.09375 -0.171875,-0.140625 C 3.265625,11.046875 2.765625,10.75 2.609375,10.1875 2.578125,10.078125 2.578125,10.0625 2.578125,9.703125 V 7.03125 C 2.578125,6.546875 2.734375,5.828125 1.375,5.4375 2.71875,5.0625 2.578125,4.328125 2.578125,3.8125 V 1.125 c 0,-0.5 0.03125,-1.0625 1.078125,-1.46875 0.078125,-0.03125 0.078125,-0.078125 0.078125,-0.09375 0,-0.078125 -0.03125,-0.125 -0.140625,-0.125 -0.0625,0 -1.265625,0.296875 -1.625,0.90625 C 1.8125,0.625 1.8125,0.71875 1.8125,1.109375 Z m 0,0"
               id="id-b51bf2a3-8a47-49aa-b68d-a407d62e0976" />
          </g>
          <g
             id="id-f73c3038-2e60-4dcc-b37b-c96333ad3346">
            <path
               d="m 2.5,3.921875 v -2.8125 C 2.5,0.71875 2.5,0.625 2.328125,0.34375 1.984375,-0.265625 0.78125,-0.5625 0.703125,-0.5625 c -0.09375,0 -0.125,0.046875 -0.125,0.125 0,0.015625 0,0.0625 0.0625,0.09375 1.0625,0.40625 1.09375,0.96875 1.09375,1.46875 v 2.6875 c 0,0.515625 -0.15625,1.25 1.203125,1.625 -1.375,0.390625 -1.203125,1.109375 -1.203125,1.59375 v 2.671875 c 0,0.359375 0,0.375 -0.03125,0.484375 C 1.546875,10.75 1.03125,11.046875 0.75,11.140625 c -0.15625,0.04687 -0.171875,0.0625 -0.171875,0.140625 0,0.07813 0.03125,0.125 0.125,0.125 0.09375,0 0.703125,-0.1875 1.1875,-0.5 0.4375,-0.28125 0.59375,-0.625 0.609375,-0.875 V 7.0625 C 2.5,6.546875 2.296875,6.046875 3.625,5.546875 3.703125,5.515625 3.734375,5.5 3.734375,5.421875 3.734375,5.359375 3.703125,5.328125 3.65625,5.3125 2.640625,4.9375 2.5,4.578125 2.5,3.921875 Z m 0,0"
               id="id-9e33acec-fb5f-43eb-9ab5-32c25694a9da" />
          </g>
          <g
             id="id-f9fd7766-8a27-42d8-9d17-583c9b00bd45">
            <path
               d="M 2.5,-6.921875 1.15625,-5.5625 1.328125,-5.390625 2.5,-6.40625 3.640625,-5.390625 3.8125,-5.5625 Z m 0,0"
               id="id-4c4d3de9-7882-4ac1-84c3-edc05671edbf" />
          </g>
          <g
             id="id-b8bc4130-dc79-40f6-bcb1-07c37c697970">
            <path
               d="M 7.3125,0 V -0.15625 C 6.640625,-0.21875 6.546875,-0.265625 6.546875,-0.59375 6.546875,-0.75 6.5625,-0.875 6.65625,-1.203125 l 1.234375,-4.40625 c 0.171875,-0.59375 0.21875,-0.65625 0.8125,-0.734375 V -6.515625 H 7.03125 L 3.6875,-1.59375 3.140625,-6.515625 h -1.8125 v 0.171875 c 0.5,0.03125 0.75,0.140625 0.75,0.359375 0,0.078125 -0.046875,0.234375 -0.109375,0.40625 l -0.078125,0.296875 -0.03125,0.125 -1.0625,3.703125 c -0.3125,1.03125 -0.453125,1.234375 -0.96875,1.296875 V 0 h 1.96875 V -0.15625 C 1.28125,-0.203125 1.09375,-0.3125 1.09375,-0.59375 1.09375,-0.703125 1.125,-0.953125 1.171875,-1.125 L 2.359375,-5.4375 2.953125,0 H 3.125 l 3.765625,-5.59375 -1.28125,4.6875 C 5.4375,-0.375 5.25,-0.234375 4.59375,-0.15625 V 0 Z m 0,0"
               id="id-81306265-2018-4f41-84c6-3ca93544d9fd" />
          </g>
          <g
             id="id-50156dce-0fe2-4b87-962b-875bc831e27e">
            <path
               d="m 4.8125,-5.9375 c 0,-0.1875 -0.0625,-0.28125 -0.25,-0.28125 -0.890625,0 -1.140625,0.96875 -1.765625,0.96875 -0.34375,0 -0.390625,-0.265625 -0.390625,-0.390625 0,-0.4375 0.46875,-0.6875 0.671875,-0.78125 V -6.4375 h -0.25 C 2.8125,-6.4375 2,-6.09375 2,-5.515625 c 0,0.46875 0.5,0.53125 0.734375,0.53125 C 2.828125,-4.984375 2.859375,-5 2.875,-5 c 0,0.015625 -2.703125,2.921875 -2.703125,4.375 0,0.6875 0.65625,0.828125 1.296875,0.828125 1.09375,0 1.515625,0.078125 1.515625,0.53125 0,0.3125 -0.375,1.0625 -1.265625,1.0625 -0.359375,0 -0.40625,-0.328125 -0.40625,-0.4375 C 1.203125,1.390625 0.84375,1.53125 0.84375,1.796875 0.84375,1.90625 1.015625,2.0625 1.328125,2.0625 2.15625,2.0625 3.375,1.609375 3.375,0.375 c 0,-0.421875 -0.28125,-0.859375 -1.25,-0.859375 -0.921875,0 -0.953125,-0.46875 -0.953125,-0.640625 v -0.015625 c 0,-0.90625 1,-2.421875 1.671875,-3.390625 0.4375,-0.625 0.578125,-0.484375 1.046875,-0.625 C 4.40625,-5.328125 4.8125,-5.75 4.8125,-5.9375 Z m 0,0"
               id="id-e1203dbf-f876-41cd-8fa3-ffb51d312467" />
          </g>
          <g
             id="id-d24ad67b-de4a-48ce-8a3b-f4c703a207e1">
            <path
               d="M 3.484375,-0.71875 3.34375,-0.796875 C 3.328125,-0.71875 3.265625,-0.65625 3.234375,-0.609375 3.09375,-0.375 3,-0.296875 2.875,-0.296875 c -0.171875,0 -0.34375,-0.234375 -0.703125,-0.9375 L 1.859375,-1.875 C 3.03125,-2.828125 3.28125,-2.96875 3.65625,-3 V -3.109375 H 2.203125 L 2.21875,-3 h 0.140625 c 0.21875,0 0.296875,0.0625 0.3125,0.140625 0,0.140625 -0.390625,0.390625 -1.140625,0.984375 L 1.171875,-1.609375 2.0625,-4.921875 1.96875,-4.96875 C 1.484375,-4.875 1.1875,-4.8125 0.703125,-4.765625 V -4.65625 H 0.84375 c 0.296875,0 0.421875,0.0625 0.453125,0.1875 -0.015625,0.125 -0.0625,0.3125 -0.171875,0.65625 L 1.0625,-3.578125 1.046875,-3.515625 0.109375,0 H 0.75 L 1.09375,-1.3125 1.4375,-1.546875 c 0.140625,0.328125 0.359375,0.78125 0.53125,1.03125 0.265625,0.453125 0.40625,0.59375 0.640625,0.59375 0.3125,0 0.53125,-0.1875 0.875,-0.796875 z m 0,0"
               id="id-9845b395-6f9e-4144-aacc-1745edf39865" />
          </g>
          <g
             id="id-44de956f-279b-4125-bfec-79a7ab2a4feb">
            <path
               d="M 2.9375,-7.140625 C 1.5,-6.203125 0.484375,-4.59375 0.484375,-2.5625 c 0,1.859375 1.046875,3.734375 2.421875,4.578125 l 0.125,-0.15625 C 1.71875,0.8125 1.328125,-0.390625 1.328125,-2.59375 1.328125,-4.8125 1.75,-5.953125 3.03125,-6.984375 Z m 0,0"
               id="id-12865479-95d8-4220-bedd-7803b4cdc6e3" />
          </g>
          <g
             id="id-fc4198b7-e102-4a89-8963-0b85fc64c5a5">
            <path
               d="m 0.375,-7.140625 -0.078125,0.15625 c 1.28125,1.03125 1.6875,2.171875 1.6875,4.390625 0,2.203125 -0.375,3.40625 -1.6875,4.453125 l 0.109375,0.15625 c 1.375,-0.84375 2.4375,-2.71875 2.4375,-4.578125 0,-2.03125 -1.015625,-3.640625 -2.46875,-4.578125 z m 0,0"
               id="id-28597a37-c1c2-4501-b394-1af834af4ea6" />
          </g>
          <g
             id="id-d6dfed12-b5e6-4f49-88da-00faf100d85c">
            <path
               d="M 3.515625,-1.265625 H 3.28125 c -0.015625,0.15625 -0.09375,0.5625 -0.1875,0.625 C 3.046875,-0.59375 2.515625,-0.59375 2.40625,-0.59375 H 1.125 c 0.734375,-0.640625 0.984375,-0.84375 1.390625,-1.171875 0.515625,-0.40625 1,-0.84375 1,-1.5 0,-0.84375 -0.734375,-1.359375 -1.625,-1.359375 -0.859375,0 -1.453125,0.609375 -1.453125,1.25 0,0.34375 0.296875,0.390625 0.375,0.390625 0.15625,0 0.359375,-0.125 0.359375,-0.375 0,-0.125 -0.046875,-0.375 -0.40625,-0.375 C 0.984375,-4.21875 1.453125,-4.375 1.78125,-4.375 c 0.703125,0 1.0625,0.546875 1.0625,1.109375 0,0.609375 -0.4375,1.078125 -0.65625,1.328125 L 0.515625,-0.265625 C 0.4375,-0.203125 0.4375,-0.1875 0.4375,0 h 2.875 z m 0,0"
               id="id-934187d3-b418-4b75-8631-87b6b8aa6e3b" />
          </g>
        </g>
      </defs>
      <g
         fill="#000000"
         fill-opacity="1"
         id="id-da7f1485-80df-4b3f-871e-f15ad416157c"
         transform="translate(-286.328,-137.577)">
        <g
           transform="translate(285.75,138.6)"
           id="g85">
          <path
             d="M 1.8125,3.921875 C 1.8125,4.578125 1.671875,4.9375 0.65625,5.3125 0.609375,5.328125 0.578125,5.359375 0.578125,5.421875 c 0,0.078125 0.015625,0.09375 0.09375,0.125 1.34375,0.5 1.140625,1 1.140625,1.515625 v 2.96875 c 0.015625,0.25 0.15625,0.59375 0.59375,0.875 0.5,0.3125 1.109375,0.5 1.1875,0.5 0.109375,0 0.140625,-0.04687 0.140625,-0.125 0,-0.07813 -0.03125,-0.09375 -0.171875,-0.140625 C 3.265625,11.046875 2.765625,10.75 2.609375,10.1875 2.578125,10.078125 2.578125,10.0625 2.578125,9.703125 V 7.03125 C 2.578125,6.546875 2.734375,5.828125 1.375,5.4375 2.71875,5.0625 2.578125,4.328125 2.578125,3.8125 V 1.125 c 0,-0.5 0.03125,-1.0625 1.078125,-1.46875 0.078125,-0.03125 0.078125,-0.078125 0.078125,-0.09375 0,-0.078125 -0.03125,-0.125 -0.140625,-0.125 -0.0625,0 -1.265625,0.296875 -1.625,0.90625 C 1.8125,0.625 1.8125,0.71875 1.8125,1.109375 Z m 0,0"
             id="id-1135b045-68eb-422d-bcf7-fec941505969" />
        </g>
      </g>
      <g
         fill="#000000"
         fill-opacity="1"
         id="id-b18fb663-6c67-4c8f-9c14-363cd0f5b026"
         transform="translate(-286.328,-137.577)">
        <g
           transform="translate(293.556,144.499)"
           id="g86">
          <path
             d="M 2.5,-6.921875 1.15625,-5.5625 1.328125,-5.390625 2.5,-6.40625 3.640625,-5.390625 3.8125,-5.5625 Z m 0,0"
             id="id-5fbe8022-b903-43ea-9895-14cead3ea75c" />
        </g>
      </g>
      <g
         fill="#000000"
         fill-opacity="1"
         id="id-d67d7d3a-3241-44ae-8f2f-6113e6115f43"
         transform="translate(-286.328,-137.577)">
        <g
           transform="translate(290.752,146.72)"
           id="g87">
          <path
             d="M 7.3125,0 V -0.15625 C 6.640625,-0.21875 6.546875,-0.265625 6.546875,-0.59375 6.546875,-0.75 6.5625,-0.875 6.65625,-1.203125 l 1.234375,-4.40625 c 0.171875,-0.59375 0.21875,-0.65625 0.8125,-0.734375 V -6.515625 H 7.03125 L 3.6875,-1.59375 3.140625,-6.515625 h -1.8125 v 0.171875 c 0.5,0.03125 0.75,0.140625 0.75,0.359375 0,0.078125 -0.046875,0.234375 -0.109375,0.40625 l -0.078125,0.296875 -0.03125,0.125 -1.0625,3.703125 c -0.3125,1.03125 -0.453125,1.234375 -0.96875,1.296875 V 0 h 1.96875 V -0.15625 C 1.28125,-0.203125 1.09375,-0.3125 1.09375,-0.59375 1.09375,-0.703125 1.125,-0.953125 1.171875,-1.125 L 2.359375,-5.4375 2.953125,0 H 3.125 l 3.765625,-5.59375 -1.28125,4.6875 C 5.4375,-0.375 5.25,-0.234375 4.59375,-0.15625 V 0 Z m 0,0"
             id="id-f0d1f746-ba95-43b0-8ea0-5bd95cf216be" />
        </g>
      </g>
      <g
         fill="#000000"
         fill-opacity="1"
         id="id-50b4218a-5bb7-4156-81e9-6cfb7765b1f4"
         transform="translate(-286.328,-137.577)">
        <g
           transform="translate(299.328,148.214)"
           id="g88">
          <path
             d="M 3.484375,-0.71875 3.34375,-0.796875 C 3.328125,-0.71875 3.265625,-0.65625 3.234375,-0.609375 3.09375,-0.375 3,-0.296875 2.875,-0.296875 c -0.171875,0 -0.34375,-0.234375 -0.703125,-0.9375 L 1.859375,-1.875 C 3.03125,-2.828125 3.28125,-2.96875 3.65625,-3 V -3.109375 H 2.203125 L 2.21875,-3 h 0.140625 c 0.21875,0 0.296875,0.0625 0.3125,0.140625 0,0.140625 -0.390625,0.390625 -1.140625,0.984375 L 1.171875,-1.609375 2.0625,-4.921875 1.96875,-4.96875 C 1.484375,-4.875 1.1875,-4.8125 0.703125,-4.765625 V -4.65625 H 0.84375 c 0.296875,0 0.421875,0.0625 0.453125,0.1875 -0.015625,0.125 -0.0625,0.3125 -0.171875,0.65625 L 1.0625,-3.578125 1.046875,-3.515625 0.109375,0 H 0.75 L 1.09375,-1.3125 1.4375,-1.546875 c 0.140625,0.328125 0.359375,0.78125 0.53125,1.03125 0.265625,0.453125 0.40625,0.59375 0.640625,0.59375 0.3125,0 0.53125,-0.1875 0.875,-0.796875 z m 0,0"
             id="id-83908056-0dab-48f6-9239-dc4178de14aa" />
        </g>
      </g>
      <g
         fill="#000000"
         fill-opacity="1"
         id="id-7b6a1292-5a4d-435a-b72c-e72773ad34c7"
         transform="translate(-286.328,-137.577)">
        <g
           transform="translate(304.321,146.72)"
           id="g89">
          <path
             d="M 2.9375,-7.140625 C 1.5,-6.203125 0.484375,-4.59375 0.484375,-2.5625 c 0,1.859375 1.046875,3.734375 2.421875,4.578125 l 0.125,-0.15625 C 1.71875,0.8125 1.328125,-0.390625 1.328125,-2.59375 1.328125,-4.8125 1.75,-5.953125 3.03125,-6.984375 Z m 0,0"
             id="id-6d0d033f-3a56-4e7e-bf51-8fb9c4527454" />
        </g>
      </g>
      <g
         fill="#000000"
         fill-opacity="1"
         id="id-4a47a156-694b-4cf9-baec-68115743413a"
         transform="translate(-286.328,-137.577)">
        <g
           transform="translate(308.316,146.72)"
           id="g90">
          <path
             d="m 4.8125,-5.9375 c 0,-0.1875 -0.0625,-0.28125 -0.25,-0.28125 -0.890625,0 -1.140625,0.96875 -1.765625,0.96875 -0.34375,0 -0.390625,-0.265625 -0.390625,-0.390625 0,-0.4375 0.46875,-0.6875 0.671875,-0.78125 V -6.4375 h -0.25 C 2.8125,-6.4375 2,-6.09375 2,-5.515625 c 0,0.46875 0.5,0.53125 0.734375,0.53125 C 2.828125,-4.984375 2.859375,-5 2.875,-5 c 0,0.015625 -2.703125,2.921875 -2.703125,4.375 0,0.6875 0.65625,0.828125 1.296875,0.828125 1.09375,0 1.515625,0.078125 1.515625,0.53125 0,0.3125 -0.375,1.0625 -1.265625,1.0625 -0.359375,0 -0.40625,-0.328125 -0.40625,-0.4375 C 1.203125,1.390625 0.84375,1.53125 0.84375,1.796875 0.84375,1.90625 1.015625,2.0625 1.328125,2.0625 2.15625,2.0625 3.375,1.609375 3.375,0.375 c 0,-0.421875 -0.28125,-0.859375 -1.25,-0.859375 -0.921875,0 -0.953125,-0.46875 -0.953125,-0.640625 v -0.015625 c 0,-0.90625 1,-2.421875 1.671875,-3.390625 0.4375,-0.625 0.578125,-0.484375 1.046875,-0.625 C 4.40625,-5.328125 4.8125,-5.75 4.8125,-5.9375 Z m 0,0"
             id="id-8a292d3e-f8dd-4347-bc0b-0e2e64a2bc2e" />
        </g>
      </g>
      <g
         fill="#000000"
         fill-opacity="1"
         id="id-eefbd0f8-ab75-4420-93aa-4c93f2d1418e"
         transform="translate(-286.328,-137.577)">
        <g
           transform="translate(312.709,148.214)"
           id="g91">
          <path
             d="M 3.515625,-1.265625 H 3.28125 c -0.015625,0.15625 -0.09375,0.5625 -0.1875,0.625 C 3.046875,-0.59375 2.515625,-0.59375 2.40625,-0.59375 H 1.125 c 0.734375,-0.640625 0.984375,-0.84375 1.390625,-1.171875 0.515625,-0.40625 1,-0.84375 1,-1.5 0,-0.84375 -0.734375,-1.359375 -1.625,-1.359375 -0.859375,0 -1.453125,0.609375 -1.453125,1.25 0,0.34375 0.296875,0.390625 0.375,0.390625 0.15625,0 0.359375,-0.125 0.359375,-0.375 0,-0.125 -0.046875,-0.375 -0.40625,-0.375 C 0.984375,-4.21875 1.453125,-4.375 1.78125,-4.375 c 0.703125,0 1.0625,0.546875 1.0625,1.109375 0,0.609375 -0.4375,1.078125 -0.65625,1.328125 L 0.515625,-0.265625 C 0.4375,-0.203125 0.4375,-0.1875 0.4375,0 h 2.875 z m 0,0"
             id="id-7b807f71-614c-4efe-be78-f6ab613d2a03" />
        </g>
      </g>
      <g
         fill="#000000"
         fill-opacity="1"
         id="id-e49d59e9-e41e-46bf-a0ba-07f0fdc31e02"
         transform="translate(-286.328,-137.577)">
        <g
           transform="translate(317.179,146.72)"
           id="g92">
          <path
             d="m 0.375,-7.140625 -0.078125,0.15625 c 1.28125,1.03125 1.6875,2.171875 1.6875,4.390625 0,2.203125 -0.375,3.40625 -1.6875,4.453125 l 0.109375,0.15625 c 1.375,-0.84375 2.4375,-2.71875 2.4375,-4.578125 0,-2.03125 -1.015625,-3.640625 -2.46875,-4.578125 z m 0,0"
             id="id-7f9f9785-cc09-4bc7-8041-e8ccf4caa70c" />
        </g>
      </g>
      <g
         fill="#000000"
         fill-opacity="1"
         id="id-63372ad4-3cc8-4405-be18-8f6113a37fc0"
         transform="translate(-286.328,-137.577)">
        <g
           transform="translate(321.193,138.6)"
           id="g93">
          <path
             d="m 2.5,3.921875 v -2.8125 C 2.5,0.71875 2.5,0.625 2.328125,0.34375 1.984375,-0.265625 0.78125,-0.5625 0.703125,-0.5625 c -0.09375,0 -0.125,0.046875 -0.125,0.125 0,0.015625 0,0.0625 0.0625,0.09375 1.0625,0.40625 1.09375,0.96875 1.09375,1.46875 v 2.6875 c 0,0.515625 -0.15625,1.25 1.203125,1.625 -1.375,0.390625 -1.203125,1.109375 -1.203125,1.59375 v 2.671875 c 0,0.359375 0,0.375 -0.03125,0.484375 C 1.546875,10.75 1.03125,11.046875 0.75,11.140625 c -0.15625,0.04687 -0.171875,0.0625 -0.171875,0.140625 0,0.07813 0.03125,0.125 0.125,0.125 0.09375,0 0.703125,-0.1875 1.1875,-0.5 0.4375,-0.28125 0.59375,-0.625 0.609375,-0.875 V 7.0625 C 2.5,6.546875 2.296875,6.046875 3.625,5.546875 3.703125,5.515625 3.734375,5.5 3.734375,5.421875 3.734375,5.359375 3.703125,5.328125 3.65625,5.3125 2.640625,4.9375 2.5,4.578125 2.5,3.921875 Z m 0,0"
             id="id-d13eb4f2-f7a6-42dc-9483-02c39c06d4ed" />
        </g>
      </g>
    </g>
    <g
       transform="matrix(0.352778 0 0 0.352778 71.5027 130.473)"
       ns15:version="1.10.2"
       ns15:texconverter="pdflatex"
       ns15:pdfconverter="inkscape"
       ns15:text="$$1$$"
       ns15:preamble="/home/n3e/textext.tex"
       ns15:scale="1.0"
       ns15:alignment="middle center"
       ns15:stroke-to-path="0"
       ns15:inkscapeversion="1.4"
       ns15:jacobian_sqrt="0.352778"
       id="g97">
      <defs
         id="id-2a6f584e-5793-4dcf-a11f-8fe1c08a12a5">
        <g
           id="id-11725761-8bd2-489a-b8c0-b2a7f2d1d11f">
          <g
             id="id-384c36c3-5fb8-4bcf-810c-62ca39440841">
            <path
               d="m 2.9375,-6.375 c 0,-0.25 0,-0.265625 -0.234375,-0.265625 C 2.078125,-6 1.203125,-6 0.890625,-6 v 0.3125 c 0.203125,0 0.78125,0 1.296875,-0.265625 v 5.171875 c 0,0.359375 -0.03125,0.46875 -0.921875,0.46875 h -0.3125 V 0 c 0.34375,-0.03125 1.203125,-0.03125 1.609375,-0.03125 0.390625,0 1.265625,0 1.609375,0.03125 v -0.3125 h -0.3125 c -0.90625,0 -0.921875,-0.109375 -0.921875,-0.46875 z m 0,0"
               id="id-761853a0-116f-41f0-974e-5675f2167561" />
          </g>
        </g>
      </defs>
      <g
         fill="#000000"
         fill-opacity="1"
         id="id-cdcfb0aa-3b43-4dab-8879-6222c245a723"
         transform="translate(-304.024,-140.079)">
        <g
           transform="translate(303.133,146.72)"
           id="g96">
          <path
             d="m 2.9375,-6.375 c 0,-0.25 0,-0.265625 -0.234375,-0.265625 C 2.078125,-6 1.203125,-6 0.890625,-6 v 0.3125 c 0.203125,0 0.78125,0 1.296875,-0.265625 v 5.171875 c 0,0.359375 -0.03125,0.46875 -0.921875,0.46875 h -0.3125 V 0 c 0.34375,-0.03125 1.203125,-0.03125 1.609375,-0.03125 0.390625,0 1.265625,0 1.609375,0.03125 v -0.3125 h -0.3125 c -0.90625,0 -0.921875,-0.109375 -0.921875,-0.46875 z m 0,0"
             id="id-1960057e-a66e-4985-b3a3-d0a0935f5f18" />
        </g>
      </g>
    </g>
    <g
       transform="matrix(0.352778 0 0 0.352778 71.3813 146.533)"
       ns15:version="1.10.2"
       ns15:texconverter="pdflatex"
       ns15:pdfconverter="inkscape"
       ns15:text="$$2$$"
       ns15:preamble="/home/n3e/textext.tex"
       ns15:scale="1.0"
       ns15:alignment="middle center"
       ns15:stroke-to-path="0"
       ns15:inkscapeversion="1.4"
       ns15:jacobian_sqrt="0.352778"
       id="g103">
      <defs
         id="id-4269e16c-536b-4677-a38c-93dce608fdfa">
        <g
           id="id-68b6b0ac-ec99-4932-a76d-e044ab4913a7">
          <g
             id="id-91349895-32de-4b6a-bac0-1240af56ba0f">
            <path
               d="m 1.265625,-0.765625 1.0625,-1.03125 c 1.546875,-1.375 2.140625,-1.90625 2.140625,-2.90625 0,-1.140625 -0.890625,-1.9375 -2.109375,-1.9375 -1.125,0 -1.859375,0.921875 -1.859375,1.8125 0,0.546875 0.5,0.546875 0.53125,0.546875 0.171875,0 0.515625,-0.109375 0.515625,-0.53125 0,-0.25 -0.1875,-0.515625 -0.53125,-0.515625 -0.078125,0 -0.09375,0 -0.125,0.015625 0.21875,-0.65625 0.765625,-1.015625 1.34375,-1.015625 0.90625,0 1.328125,0.8125 1.328125,1.625 C 3.5625,-3.90625 3.078125,-3.125 2.515625,-2.5 l -1.90625,2.125 C 0.5,-0.265625 0.5,-0.234375 0.5,0 H 4.203125 L 4.46875,-1.734375 H 4.234375 C 4.171875,-1.4375 4.109375,-1 4,-0.84375 3.9375,-0.765625 3.28125,-0.765625 3.0625,-0.765625 Z m 0,0"
               id="id-721b4d89-af92-41a7-91e3-1af3227017e9" />
          </g>
        </g>
      </defs>
      <g
         fill="#000000"
         fill-opacity="1"
         id="id-56c2799c-e774-4b52-94b1-25559e84be8c"
         transform="translate(-303.633, -140.079)">
        <g
           transform="translate(303.133, 146.72)"
           id="g102">
          <path
             d="m 1.265625,-0.765625 1.0625,-1.03125 c 1.546875,-1.375 2.140625,-1.90625 2.140625,-2.90625 0,-1.140625 -0.890625,-1.9375 -2.109375,-1.9375 -1.125,0 -1.859375,0.921875 -1.859375,1.8125 0,0.546875 0.5,0.546875 0.53125,0.546875 0.171875,0 0.515625,-0.109375 0.515625,-0.53125 0,-0.25 -0.1875,-0.515625 -0.53125,-0.515625 -0.078125,0 -0.09375,0 -0.125,0.015625 0.21875,-0.65625 0.765625,-1.015625 1.34375,-1.015625 0.90625,0 1.328125,0.8125 1.328125,1.625 C 3.5625,-3.90625 3.078125,-3.125 2.515625,-2.5 l -1.90625,2.125 C 0.5,-0.265625 0.5,-0.234375 0.5,0 H 4.203125 L 4.46875,-1.734375 H 4.234375 C 4.171875,-1.4375 4.109375,-1 4,-0.84375 3.9375,-0.765625 3.28125,-0.765625 3.0625,-0.765625 Z m 0,0"
             id="id-3cdb936c-b7ab-44e7-a262-75a5d950de77" />
        </g>
      </g>
    </g>
    <text
       xml:space="preserve"
       style="font-size:3.52777px;line-height:1.25;font-family:Hack;-inkscape-font-specification:'Hack, Normal';text-align:end;letter-spacing:0.0079375px;text-anchor:end;stroke-width:0.264583"
       x="105.45493"
       y="143.58875"
       id="text109"><tspan
         sodipodi:role="line"
         id="tspan109"
         style="stroke-width:0.264583"
         x="105.46287"
         y="143.58875">LOSS</tspan></text>
  </g>
</svg>
